<svg width="1800" height="500" viewBox="0 0 1800 500" fill="none" xmlns="http://www.w3.org/2000/svg">
<rect width="1800" height="500" fill="black"/>
<rect x="1112" y="222" width="80" height="80" rx="8" fill="black" stroke="white" stroke-width="6"/>
<path d="M1150.6 244.091H1157.98V266.761C1157.98 269.307 1157.37 271.534 1156.15 273.443C1154.95 275.352 1153.26 276.841 1151.09 277.909C1148.92 278.966 1146.39 279.494 1143.51 279.494C1140.61 279.494 1138.07 278.966 1135.9 277.909C1133.73 276.841 1132.05 275.352 1130.84 273.443C1129.64 271.534 1129.03 269.307 1129.03 266.761V244.091H1136.41V266.131C1136.41 267.46 1136.7 268.642 1137.28 269.676C1137.88 270.71 1138.7 271.523 1139.77 272.114C1140.84 272.705 1142.09 273 1143.51 273C1144.94 273 1146.18 272.705 1147.24 272.114C1148.31 271.523 1149.13 270.71 1149.71 269.676C1150.3 268.642 1150.6 267.46 1150.6 266.131V244.091ZM1175.27 244.091V279H1167.89V244.091H1175.27Z" fill="white"/>
<path d="M620.987 307V192.091H666.322C675.038 192.091 682.463 193.755 688.597 197.085C694.732 200.376 699.407 204.958 702.624 210.831C705.879 216.666 707.506 223.399 707.506 231.03C707.506 238.661 705.86 245.393 702.568 251.229C699.277 257.064 694.507 261.609 688.261 264.863C682.051 268.117 674.533 269.744 665.705 269.744H636.81V250.275H661.778C666.453 250.275 670.306 249.471 673.336 247.862C676.403 246.216 678.685 243.953 680.181 241.073C681.715 238.156 682.482 234.808 682.482 231.03C682.482 227.214 681.715 223.885 680.181 221.043C678.685 218.162 676.403 215.937 673.336 214.366C670.269 212.757 666.379 211.953 661.665 211.953H645.282V307H620.987ZM746.678 308.627C741.179 308.627 736.279 307.673 731.978 305.766C727.676 303.821 724.272 300.959 721.766 297.181C719.297 293.366 718.063 288.615 718.063 282.93C718.063 278.142 718.942 274.121 720.7 270.866C722.458 267.612 724.852 264.994 727.882 263.011C730.912 261.029 734.353 259.533 738.206 258.523C742.096 257.513 746.173 256.802 750.437 256.391C755.45 255.867 759.489 255.381 762.557 254.932C765.624 254.446 767.849 253.735 769.233 252.8C770.617 251.865 771.309 250.481 771.309 248.648V248.311C771.309 244.758 770.187 242.008 767.943 240.063C765.736 238.118 762.594 237.146 758.517 237.146C754.215 237.146 750.793 238.099 748.249 240.007C745.705 241.877 744.022 244.234 743.199 247.077L721.093 245.281C722.215 240.045 724.422 235.518 727.714 231.703C731.005 227.85 735.251 224.895 740.45 222.838C745.687 220.743 751.746 219.696 758.629 219.696C763.417 219.696 767.999 220.257 772.375 221.379C776.789 222.501 780.698 224.241 784.102 226.597C787.543 228.954 790.255 231.984 792.238 235.687C794.22 239.353 795.211 243.748 795.211 248.872V307H772.544V295.049H771.87C770.486 297.742 768.635 300.117 766.316 302.175C763.997 304.195 761.21 305.784 757.956 306.944C754.701 308.066 750.942 308.627 746.678 308.627ZM753.523 292.131C757.039 292.131 760.144 291.439 762.837 290.055C765.53 288.634 767.644 286.726 769.177 284.332C770.711 281.938 771.478 279.227 771.478 276.197V267.051C770.73 267.537 769.701 267.986 768.392 268.398C767.12 268.772 765.68 269.127 764.071 269.464C762.463 269.763 760.855 270.044 759.246 270.305C757.638 270.53 756.179 270.736 754.87 270.923C752.064 271.334 749.614 271.989 747.52 272.886C745.425 273.784 743.798 275 742.638 276.533C741.479 278.03 740.899 279.9 740.899 282.144C740.899 285.398 742.077 287.886 744.434 289.607C746.828 291.29 749.857 292.131 753.523 292.131ZM815.335 339.318V220.818H838.9V235.294H839.966C841.014 232.975 842.529 230.618 844.511 228.224C846.531 225.793 849.149 223.773 852.366 222.165C855.621 220.519 859.66 219.696 864.486 219.696C870.77 219.696 876.568 221.342 881.879 224.634C887.191 227.888 891.436 232.807 894.616 239.39C897.795 245.936 899.385 254.146 899.385 264.021C899.385 273.634 897.832 281.751 894.728 288.372C891.661 294.955 887.471 299.949 882.16 303.353C876.886 306.719 870.975 308.403 864.43 308.403C859.791 308.403 855.845 307.636 852.591 306.102C849.374 304.569 846.737 302.642 844.68 300.323C842.622 297.967 841.051 295.591 839.966 293.197H839.237V339.318H815.335ZM838.732 263.909C838.732 269.034 839.443 273.504 840.864 277.319C842.286 281.134 844.343 284.108 847.036 286.24C849.729 288.335 853.002 289.382 856.855 289.382C860.745 289.382 864.037 288.316 866.73 286.184C869.423 284.014 871.462 281.022 872.846 277.207C874.267 273.354 874.978 268.921 874.978 263.909C874.978 258.934 874.286 254.558 872.902 250.78C871.518 247.002 869.479 244.047 866.786 241.915C864.093 239.783 860.783 238.717 856.855 238.717C852.965 238.717 849.673 239.745 846.98 241.803C844.324 243.86 842.286 246.777 840.864 250.555C839.443 254.333 838.732 258.785 838.732 263.909ZM956.175 308.683C947.31 308.683 939.679 306.888 933.283 303.297C926.924 299.669 922.024 294.544 918.583 287.923C915.141 281.265 913.421 273.391 913.421 264.302C913.421 255.437 915.141 247.656 918.583 240.961C922.024 234.265 926.868 229.047 933.115 225.307C939.399 221.566 946.768 219.696 955.221 219.696C960.907 219.696 966.2 220.612 971.1 222.445C976.037 224.241 980.339 226.953 984.005 230.581C987.708 234.209 990.588 238.773 992.645 244.271C994.702 249.732 995.731 256.129 995.731 263.46V270.025H922.959V255.212H973.232C973.232 251.771 972.484 248.723 970.988 246.067C969.491 243.411 967.415 241.335 964.76 239.839C962.141 238.305 959.093 237.538 955.614 237.538C951.986 237.538 948.769 238.38 945.963 240.063C943.195 241.709 941.026 243.935 939.455 246.74C937.884 249.508 937.08 252.594 937.042 255.998V270.081C937.042 274.345 937.828 278.03 939.399 281.134C941.007 284.239 943.27 286.633 946.188 288.316C949.105 289.999 952.565 290.841 956.568 290.841C959.224 290.841 961.655 290.467 963.862 289.719C966.069 288.971 967.958 287.848 969.529 286.352C971.1 284.856 972.297 283.023 973.12 280.854L995.226 282.312C994.104 287.624 991.804 292.262 988.325 296.227C984.884 300.155 980.432 303.222 974.971 305.429C969.547 307.598 963.282 308.683 956.175 308.683ZM1012.91 307V220.818H1036.08V235.855H1036.98C1038.55 230.506 1041.19 226.466 1044.89 223.736C1048.59 220.968 1052.86 219.584 1057.68 219.584C1058.88 219.584 1060.17 219.659 1061.55 219.808C1062.94 219.958 1064.15 220.164 1065.2 220.425V241.634C1064.08 241.298 1062.53 240.998 1060.54 240.737C1058.56 240.475 1056.75 240.344 1055.1 240.344C1051.59 240.344 1048.44 241.111 1045.68 242.644C1042.95 244.14 1040.78 246.235 1039.17 248.928C1037.6 251.621 1036.81 254.726 1036.81 258.242V307H1012.91Z" fill="white"/>
</svg>
