<svg width="1800" height="640" viewBox="0 0 1800 640" fill="none" xmlns="http://www.w3.org/2000/svg">
<rect width="1800" height="640" fill="black"/>
<rect x="1112" y="292" width="80" height="80" rx="8" fill="black" stroke="white" stroke-width="6"/>
<path d="M1150.6 314.091H1157.98V336.761C1157.98 339.307 1157.37 341.534 1156.15 343.443C1154.95 345.352 1153.26 346.841 1151.09 347.909C1148.92 348.966 1146.39 349.494 1143.51 349.494C1140.61 349.494 1138.07 348.966 1135.9 347.909C1133.73 346.841 1132.05 345.352 1130.84 343.443C1129.64 341.534 1129.03 339.307 1129.03 336.761V314.091H1136.41V336.131C1136.41 337.46 1136.7 338.642 1137.28 339.676C1137.88 340.71 1138.7 341.523 1139.77 342.114C1140.84 342.705 1142.09 343 1143.51 343C1144.94 343 1146.18 342.705 1147.24 342.114C1148.31 341.523 1149.13 340.71 1149.71 339.676C1150.3 338.642 1150.6 337.46 1150.6 336.131V314.091ZM1175.27 314.091V349H1167.89V314.091H1175.27Z" fill="white"/>
<path d="M620.987 377V262.091H666.322C675.038 262.091 682.463 263.755 688.597 267.085C694.732 270.376 699.407 274.958 702.624 280.831C705.879 286.666 707.506 293.399 707.506 301.03C707.506 308.661 705.86 315.393 702.568 321.229C699.277 327.064 694.507 331.609 688.261 334.863C682.051 338.117 674.533 339.744 665.705 339.744H636.81V320.275H661.778C666.453 320.275 670.306 319.471 673.336 317.862C676.403 316.216 678.685 313.953 680.181 311.073C681.715 308.156 682.482 304.808 682.482 301.03C682.482 297.214 681.715 293.885 680.181 291.043C678.685 288.162 676.403 285.937 673.336 284.366C670.269 282.757 666.379 281.953 661.665 281.953H645.282V377H620.987ZM746.678 378.627C741.179 378.627 736.279 377.673 731.978 375.766C727.676 373.821 724.272 370.959 721.766 367.181C719.297 363.366 718.063 358.615 718.063 352.93C718.063 348.142 718.942 344.121 720.7 340.866C722.458 337.612 724.852 334.994 727.882 333.011C730.912 331.029 734.353 329.533 738.206 328.523C742.096 327.513 746.173 326.802 750.437 326.391C755.45 325.867 759.489 325.381 762.557 324.932C765.624 324.446 767.849 323.735 769.233 322.8C770.617 321.865 771.309 320.481 771.309 318.648V318.311C771.309 314.758 770.187 312.008 767.943 310.063C765.736 308.118 762.594 307.146 758.517 307.146C754.215 307.146 750.793 308.099 748.249 310.007C745.705 311.877 744.022 314.234 743.199 317.077L721.093 315.281C722.215 310.045 724.422 305.518 727.714 301.703C731.005 297.85 735.251 294.895 740.45 292.838C745.687 290.743 751.746 289.696 758.629 289.696C763.417 289.696 767.999 290.257 772.375 291.379C776.789 292.501 780.698 294.241 784.102 296.597C787.543 298.954 790.255 301.984 792.238 305.687C794.22 309.353 795.211 313.748 795.211 318.872V377H772.544V365.049H771.87C770.486 367.742 768.635 370.117 766.316 372.175C763.997 374.195 761.21 375.784 757.956 376.944C754.701 378.066 750.942 378.627 746.678 378.627ZM753.523 362.131C757.039 362.131 760.144 361.439 762.837 360.055C765.53 358.634 767.644 356.726 769.177 354.332C770.711 351.938 771.478 349.227 771.478 346.197V337.051C770.73 337.537 769.701 337.986 768.392 338.398C767.12 338.772 765.68 339.127 764.071 339.464C762.463 339.763 760.855 340.044 759.246 340.305C757.638 340.53 756.179 340.736 754.87 340.923C752.064 341.334 749.614 341.989 747.52 342.886C745.425 343.784 743.798 345 742.638 346.533C741.479 348.03 740.899 349.9 740.899 352.144C740.899 355.398 742.077 357.886 744.434 359.607C746.828 361.29 749.857 362.131 753.523 362.131ZM815.335 409.318V290.818H838.9V305.294H839.966C841.014 302.975 842.529 300.618 844.511 298.224C846.531 295.793 849.149 293.773 852.366 292.165C855.621 290.519 859.66 289.696 864.486 289.696C870.77 289.696 876.568 291.342 881.879 294.634C887.191 297.888 891.436 302.807 894.616 309.39C897.795 315.936 899.385 324.146 899.385 334.021C899.385 343.634 897.832 351.751 894.728 358.372C891.661 364.955 887.471 369.949 882.16 373.353C876.886 376.719 870.975 378.403 864.43 378.403C859.791 378.403 855.845 377.636 852.591 376.102C849.374 374.569 846.737 372.642 844.68 370.323C842.622 367.967 841.051 365.591 839.966 363.197H839.237V409.318H815.335ZM838.732 333.909C838.732 339.034 839.443 343.504 840.864 347.319C842.286 351.134 844.343 354.108 847.036 356.24C849.729 358.335 853.002 359.382 856.855 359.382C860.745 359.382 864.037 358.316 866.73 356.184C869.423 354.014 871.462 351.022 872.846 347.207C874.267 343.354 874.978 338.921 874.978 333.909C874.978 328.934 874.286 324.558 872.902 320.78C871.518 317.002 869.479 314.047 866.786 311.915C864.093 309.783 860.783 308.717 856.855 308.717C852.965 308.717 849.673 309.745 846.98 311.803C844.324 313.86 842.286 316.777 840.864 320.555C839.443 324.333 838.732 328.785 838.732 333.909ZM956.175 378.683C947.31 378.683 939.679 376.888 933.283 373.297C926.924 369.669 922.024 364.544 918.583 357.923C915.141 351.265 913.421 343.391 913.421 334.302C913.421 325.437 915.141 317.656 918.583 310.961C922.024 304.265 926.868 299.047 933.115 295.307C939.399 291.566 946.768 289.696 955.221 289.696C960.907 289.696 966.2 290.612 971.1 292.445C976.037 294.241 980.339 296.953 984.005 300.581C987.708 304.209 990.588 308.773 992.645 314.271C994.702 319.732 995.731 326.129 995.731 333.46V340.025H922.959V325.212H973.232C973.232 321.771 972.484 318.723 970.988 316.067C969.491 313.411 967.415 311.335 964.76 309.839C962.141 308.305 959.093 307.538 955.614 307.538C951.986 307.538 948.769 308.38 945.963 310.063C943.195 311.709 941.026 313.935 939.455 316.74C937.884 319.508 937.08 322.594 937.042 325.998V340.081C937.042 344.345 937.828 348.03 939.399 351.134C941.007 354.239 943.27 356.633 946.188 358.316C949.105 359.999 952.565 360.841 956.568 360.841C959.224 360.841 961.655 360.467 963.862 359.719C966.069 358.971 967.958 357.848 969.529 356.352C971.1 354.856 972.297 353.023 973.12 350.854L995.226 352.312C994.104 357.624 991.804 362.262 988.325 366.227C984.884 370.155 980.432 373.222 974.971 375.429C969.547 377.598 963.282 378.683 956.175 378.683ZM1012.91 377V290.818H1036.08V305.855H1036.98C1038.55 300.506 1041.19 296.466 1044.89 293.736C1048.59 290.968 1052.86 289.584 1057.68 289.584C1058.88 289.584 1060.17 289.659 1061.55 289.808C1062.94 289.958 1064.15 290.164 1065.2 290.425V311.634C1064.08 311.298 1062.53 310.998 1060.54 310.737C1058.56 310.475 1056.75 310.344 1055.1 310.344C1051.59 310.344 1048.44 311.111 1045.68 312.644C1042.95 314.14 1040.78 316.235 1039.17 318.928C1037.6 321.621 1036.81 324.726 1036.81 328.242V377H1012.91Z" fill="white"/>
</svg>
