<svg width="1560" height="412" viewBox="0 0 1560 412" fill="none" xmlns="http://www.w3.org/2000/svg">
<rect width="1560" height="412" fill="black"/>
<path d="M596.14 201.748V207.476C596.14 216.662 594.895 224.907 592.404 232.212C589.914 239.517 586.4 245.742 581.862 250.889C577.325 255.98 571.901 259.881 565.593 262.593C559.34 265.304 552.395 266.66 544.758 266.66C537.176 266.66 530.231 265.304 523.923 262.593C517.67 259.881 512.246 255.98 507.653 250.889C503.06 245.742 499.491 239.517 496.945 232.212C494.455 224.907 493.21 216.662 493.21 207.476V201.748C493.21 192.507 494.455 184.261 496.945 177.012C499.436 169.707 502.95 163.481 507.487 158.335C512.08 153.188 517.504 149.259 523.757 146.548C530.065 143.836 537.01 142.48 544.592 142.48C552.229 142.48 559.174 143.836 565.427 146.548C571.735 149.259 577.159 153.188 581.696 158.335C586.289 163.481 589.831 169.707 592.321 177.012C594.867 184.261 596.14 192.507 596.14 201.748ZM570.988 207.476V201.582C570.988 195.163 570.407 189.518 569.245 184.648C568.083 179.779 566.368 175.684 564.099 172.363C561.83 169.043 559.063 166.553 555.798 164.893C552.533 163.177 548.798 162.319 544.592 162.319C540.386 162.319 536.651 163.177 533.386 164.893C530.176 166.553 527.437 169.043 525.168 172.363C522.954 175.684 521.267 179.779 520.104 184.648C518.942 189.518 518.361 195.163 518.361 201.582V207.476C518.361 213.84 518.942 219.484 520.104 224.409C521.267 229.279 522.982 233.402 525.251 236.777C527.52 240.098 530.287 242.616 533.552 244.331C536.817 246.047 540.552 246.904 544.758 246.904C548.964 246.904 552.699 246.047 555.964 244.331C559.229 242.616 561.968 240.098 564.182 236.777C566.395 233.402 568.083 229.279 569.245 224.409C570.407 219.484 570.988 213.84 570.988 207.476ZM635.983 194.36V265H612.077V175.186H634.489L635.983 194.36ZM632.497 216.938H626.022C626.022 210.298 626.88 204.321 628.596 199.009C630.311 193.641 632.718 189.076 635.817 185.312C638.916 181.494 642.596 178.589 646.857 176.597C651.174 174.549 655.988 173.525 661.301 173.525C665.507 173.525 669.353 174.134 672.839 175.352C676.325 176.569 679.313 178.506 681.804 181.162C684.349 183.818 686.286 187.332 687.614 191.704C688.998 196.076 689.689 201.416 689.689 207.725V265H665.617V207.642C665.617 203.657 665.064 200.558 663.957 198.345C662.85 196.131 661.218 194.582 659.06 193.696C656.957 192.756 654.356 192.285 651.257 192.285C648.047 192.285 645.253 192.922 642.873 194.194C640.549 195.467 638.612 197.238 637.062 199.507C635.568 201.72 634.434 204.321 633.659 207.31C632.884 210.298 632.497 213.507 632.497 216.938ZM734.514 254.873L758.337 175.186H783.986L747.878 278.53C747.103 280.799 746.052 283.234 744.724 285.835C743.451 288.436 741.708 290.898 739.494 293.223C737.336 295.602 734.597 297.539 731.276 299.033C728.011 300.527 723.999 301.274 719.24 301.274C716.971 301.274 715.118 301.136 713.679 300.859C712.24 300.583 710.524 300.195 708.532 299.697V282.183C709.141 282.183 709.777 282.183 710.441 282.183C711.105 282.238 711.742 282.266 712.351 282.266C715.505 282.266 718.078 281.906 720.07 281.187C722.062 280.467 723.667 279.36 724.885 277.866C726.102 276.427 727.071 274.546 727.79 272.222L734.514 254.873ZM724.553 175.186L744.06 240.264L747.463 265.581L731.193 267.324L698.903 175.186H724.553ZM812.79 175.186L827.648 202.495L842.922 175.186H868.405L843.005 219.097L869.567 265H844.001L827.814 236.113L811.628 265H786.062L812.624 219.097L787.224 175.186H812.79ZM990.593 144.141H1015.41V223.994C1015.41 233.291 1013.42 241.121 1009.44 247.485C1005.51 253.849 1000.06 258.636 993.083 261.846C986.166 265.055 978.197 266.66 969.177 266.66C960.157 266.66 952.132 265.055 945.104 261.846C938.132 258.636 932.653 253.849 928.669 247.485C924.74 241.121 922.775 233.291 922.775 223.994V144.141H947.678V223.994C947.678 229.417 948.535 233.844 950.251 237.275C951.966 240.706 954.429 243.224 957.639 244.829C960.904 246.434 964.75 247.236 969.177 247.236C973.715 247.236 977.561 246.434 980.715 244.829C983.924 243.224 986.359 240.706 988.02 237.275C989.735 233.844 990.593 229.417 990.593 223.994V144.141ZM1062.39 144.141V265H1037.58V144.141H1062.39Z" fill="white"/>
</svg>
