<svg width="1560" height="412" viewBox="0 0 1560 412" fill="none" xmlns="http://www.w3.org/2000/svg">
<rect width="1560" height="412" fill="black"/>
<path d="M442.777 268V144.364H491.555C500.933 144.364 508.922 146.155 515.522 149.737C522.122 153.278 527.153 158.208 530.614 164.527C534.116 170.805 535.866 178.05 535.866 186.26C535.866 194.47 534.096 201.714 530.554 207.993C527.012 214.271 521.881 219.161 515.16 222.663C508.479 226.164 500.389 227.915 490.891 227.915H459.801V206.967H486.665C491.696 206.967 495.842 206.101 499.102 204.371C502.402 202.6 504.857 200.165 506.467 197.066C508.117 193.927 508.942 190.325 508.942 186.26C508.942 182.155 508.117 178.573 506.467 175.514C504.857 172.415 502.402 170.021 499.102 168.33C495.801 166.6 491.616 165.734 486.545 165.734H468.917V268H442.777ZM576.314 269.751C570.398 269.751 565.125 268.724 560.497 266.672C555.869 264.579 552.206 261.5 549.51 257.435C546.854 253.33 545.526 248.219 545.526 242.102C545.526 236.95 546.471 232.624 548.363 229.122C550.254 225.621 552.83 222.804 556.09 220.67C559.35 218.537 563.053 216.928 567.198 215.841C571.384 214.754 575.771 213.99 580.359 213.547C585.752 212.983 590.098 212.46 593.398 211.977C596.699 211.454 599.093 210.689 600.582 209.683C602.071 208.677 602.816 207.188 602.816 205.216V204.854C602.816 201.03 601.609 198.072 599.194 195.979C596.819 193.887 593.439 192.84 589.052 192.84C584.424 192.84 580.741 193.866 578.004 195.919C575.268 197.931 573.456 200.467 572.571 203.526L548.786 201.594C549.993 195.959 552.367 191.089 555.909 186.984C559.451 182.839 564.019 179.66 569.613 177.446C575.247 175.192 581.767 174.065 589.173 174.065C594.324 174.065 599.254 174.669 603.963 175.876C608.712 177.084 612.918 178.955 616.58 181.491C620.283 184.026 623.201 187.286 625.334 191.271C627.467 195.215 628.533 199.944 628.533 205.457V268H604.144V255.141H603.42C601.931 258.039 599.938 260.595 597.443 262.808C594.948 264.982 591.95 266.692 588.448 267.94C584.947 269.147 580.902 269.751 576.314 269.751ZM583.679 252.002C587.462 252.002 590.803 251.258 593.7 249.768C596.598 248.239 598.872 246.187 600.522 243.611C602.172 241.035 602.997 238.117 602.997 234.857V225.017C602.192 225.54 601.085 226.023 599.677 226.466C598.308 226.868 596.759 227.251 595.028 227.613C593.298 227.935 591.567 228.237 589.837 228.518C588.106 228.76 586.536 228.981 585.128 229.183C582.109 229.625 579.473 230.33 577.219 231.295C574.966 232.261 573.215 233.569 571.967 235.219C570.72 236.829 570.096 238.842 570.096 241.256C570.096 244.758 571.364 247.434 573.899 249.286C576.475 251.097 579.735 252.002 583.679 252.002ZM648.485 302.773V175.273H673.841V190.848H674.988C676.114 188.353 677.744 185.817 679.877 183.241C682.051 180.625 684.868 178.452 688.329 176.722C691.831 174.951 696.177 174.065 701.369 174.065C708.13 174.065 714.368 175.836 720.083 179.378C725.798 182.879 730.366 188.172 733.787 195.255C737.208 202.298 738.919 211.132 738.919 221.757C738.919 232.1 737.248 240.834 733.908 247.957C730.608 255.041 726.1 260.414 720.385 264.076C714.711 267.698 708.352 269.509 701.309 269.509C696.318 269.509 692.072 268.684 688.571 267.034C685.109 265.384 682.272 263.311 680.059 260.816C677.845 258.281 676.155 255.725 674.988 253.149H674.203V302.773H648.485ZM673.659 221.636C673.659 227.15 674.424 231.96 675.953 236.065C677.483 240.17 679.696 243.369 682.594 245.663C685.492 247.917 689.013 249.044 693.159 249.044C697.344 249.044 700.886 247.897 703.784 245.603C706.681 243.269 708.875 240.049 710.364 235.944C711.893 231.799 712.658 227.029 712.658 221.636C712.658 216.284 711.913 211.575 710.424 207.51C708.935 203.445 706.742 200.266 703.844 197.972C700.946 195.678 697.385 194.531 693.159 194.531C688.973 194.531 685.431 195.637 682.534 197.851C679.676 200.064 677.483 203.204 675.953 207.268C674.424 211.333 673.659 216.123 673.659 221.636ZM798.322 269.811C788.784 269.811 780.574 267.879 773.691 264.016C766.85 260.112 761.577 254.598 757.875 247.474C754.172 240.311 752.321 231.839 752.321 222.059C752.321 212.521 754.172 204.149 757.875 196.945C761.577 189.741 766.789 184.127 773.51 180.102C780.272 176.078 788.2 174.065 797.296 174.065C803.413 174.065 809.108 175.051 814.38 177.023C819.693 178.955 824.321 181.873 828.265 185.777C832.25 189.681 835.349 194.591 837.562 200.507C839.776 206.383 840.882 213.265 840.882 221.153V228.217H762.583V212.279H816.674C816.674 208.576 815.869 205.296 814.26 202.439C812.65 199.581 810.416 197.348 807.559 195.738C804.741 194.088 801.461 193.263 797.718 193.263C793.815 193.263 790.353 194.168 787.335 195.979C784.357 197.75 782.022 200.145 780.332 203.163C778.642 206.142 777.776 209.462 777.736 213.124V228.277C777.736 232.865 778.581 236.829 780.272 240.17C782.002 243.51 784.437 246.086 787.576 247.897C790.716 249.708 794.438 250.614 798.745 250.614C801.602 250.614 804.218 250.211 806.593 249.406C808.967 248.601 811 247.394 812.69 245.784C814.38 244.174 815.668 242.202 816.554 239.868L840.339 241.438C839.132 247.152 836.657 252.143 832.914 256.409C829.211 260.635 824.422 263.935 818.546 266.31C812.71 268.644 805.969 269.811 798.322 269.811ZM857.665 268V175.273H882.598V191.452H883.564C885.254 185.696 888.091 181.35 892.076 178.412C896.06 175.434 900.648 173.945 905.84 173.945C907.128 173.945 908.516 174.025 910.005 174.186C911.494 174.347 912.802 174.568 913.929 174.85V197.67C912.722 197.308 911.052 196.986 908.919 196.704C906.786 196.422 904.834 196.281 903.063 196.281C899.28 196.281 895.899 197.106 892.921 198.756C889.983 200.366 887.649 202.62 885.918 205.518C884.228 208.415 883.382 211.756 883.382 215.539V268H857.665ZM1043.42 144.364H1069.56V224.655C1069.56 233.67 1067.41 241.558 1063.1 248.32C1058.84 255.081 1052.86 260.353 1045.17 264.136C1037.49 267.879 1028.53 269.751 1018.31 269.751C1008.05 269.751 999.07 267.879 991.383 264.136C983.696 260.353 977.72 255.081 973.453 248.32C969.187 241.558 967.054 233.67 967.054 224.655V144.364H993.194V222.421C993.194 227.13 994.221 231.316 996.273 234.978C998.366 238.64 1001.3 241.518 1005.09 243.611C1008.87 245.704 1013.28 246.75 1018.31 246.75C1023.38 246.75 1027.79 245.704 1031.53 243.611C1035.31 241.518 1038.23 238.64 1040.28 234.978C1042.38 231.316 1043.42 227.13 1043.42 222.421V144.364ZM1117.21 144.364V268H1091.07V144.364H1117.21Z" fill="white"/>
</svg>
